<svg width="55" height="42" viewBox="0 0 55 42" fill="none" xmlns="http://www.w3.org/2000/svg">
<g clip-path="url(#clip0_227_75)">
<path d="M38.6272 22.723H31.9072V17.913H33.028V21.827H38.3871L38.6272 22.723Z" fill="#FF7900"/>
<path d="M26.5865 20.1331H23.6465V22.7231H26.5865V20.1331Z" fill="#FF7900"/>
<path d="M21.1255 20.1331H18.1855V22.7231H21.1255V20.1331Z" fill="#FF7900"/>
<path d="M15.6656 20.1331H12.7256V22.7231H15.6656V20.1331Z" fill="#FF7900"/>
<path d="M9.7857 20.1331H6.8457V22.7231H9.7857V20.1331Z" fill="#FF7900"/>
<path d="M14.9312 27.8882H7.3166L1.5752 24.0032V12.1854C1.57888 11.9725 1.65195 11.7651 1.78569 11.5879C1.91944 11.4106 2.10822 11.2709 2.32953 11.1855C2.55085 11.1001 2.79537 11.0726 3.03396 11.1062C3.27254 11.1398 3.49513 11.2331 3.6752 11.3751L10.4624 16.8881L10.1936 17.1767L9.8954 17.4394L3.1208 11.919C3.06108 11.8714 2.98714 11.8401 2.90776 11.8285C2.82837 11.8169 2.74689 11.8257 2.67301 11.8538C2.59913 11.8818 2.53595 11.928 2.49099 11.9868C2.44603 12.0456 2.42118 12.1145 2.4194 12.1854V23.6369L7.6022 27.1482H14.9312V27.8882Z" fill="#FF7900"/>
<path d="M37.4557 27.8882H23.9611L24.4366 26.9687H37.4184C37.9366 26.9681 38.522 26.8461 38.9457 26.5833C39.3694 26.3205 39.534 25.8566 39.7094 25.4271C39.8848 24.9975 39.846 24.7112 39.7094 24.2708C39.5728 23.8305 38.9629 23.4058 38.5639 23.1146L30.9275 17.7187H1.99512V16.7882H31.5925L39.6019 22.6527C40.1328 23.0418 40.5146 23.5654 40.6956 24.1525C40.8766 24.7395 40.8478 25.3615 40.6133 25.9336C40.3787 26.5058 39.9498 27.0003 39.3848 27.3501C38.8198 27.6998 38.1462 27.8877 37.4557 27.8882Z" fill="#FF7900"/>
<path d="M15.0362 35.9209C14.4053 35.9223 13.7855 35.7747 13.2414 35.4934C12.6973 35.2121 12.2488 34.8074 11.9425 34.3215C11.6363 33.8356 11.4836 33.2863 11.5003 32.7307C11.5169 32.1751 11.7024 31.6336 12.0374 31.1627L16.3466 25.0651H26.9012L18.3248 34.5297C17.9307 34.9645 17.4303 35.3154 16.8609 35.5562C16.2915 35.7971 15.6678 35.9217 15.0362 35.9209ZM16.8002 25.8051L12.7514 31.5549C12.4795 31.9268 12.3338 32.3594 12.3314 32.8018C12.3325 33.4318 12.6168 34.0358 13.1221 34.4817C13.6274 34.9275 14.3126 35.1789 15.0278 35.1809C15.5325 35.1817 16.031 35.0823 16.4862 34.8902C16.9414 34.698 17.3415 34.418 17.657 34.0709L25.1582 25.8051H16.8002Z" fill="#FF7900"/>
<path d="M9.57644 34.193H2.85645V34.933H9.57644V34.193Z" fill="#FF7900"/>
<path d="M9.57578 30.493H1.17578V31.233H9.57578V30.493Z" fill="#FF7900"/>
</g>
<path d="M50.6572 7.10637L51.7072 5.82117C51.7673 5.75285 51.8126 5.67275 51.8401 5.58598C51.8676 5.4992 51.8767 5.40765 51.8668 5.31717C51.8591 5.2257 51.8328 5.13678 51.7895 5.05588C51.7461 4.97498 51.6867 4.90381 51.6148 4.84677L50.7748 4.13277C50.7045 4.06857 50.622 4.01926 50.5322 3.98777C50.4424 3.95629 50.3472 3.9433 50.2523 3.94958C50.1573 3.95586 50.0646 3.98127 49.9797 4.0243C49.8949 4.06733 49.8196 4.12709 49.7584 4.19997L48.7588 5.44317C47.8478 4.863 46.8269 4.47695 45.76 4.30917V3.35997H46.7428C46.9277 3.35997 47.105 3.28651 47.2358 3.15576C47.3665 3.02501 47.44 2.84767 47.44 2.66277V1.53717C47.44 1.35226 47.3665 1.17492 47.2358 1.04417C47.105 0.913421 46.9277 0.839966 46.7428 0.839966H42.2572C42.0723 0.839966 41.8949 0.913421 41.7642 1.04417C41.6334 1.17492 41.56 1.35226 41.56 1.53717V2.66277C41.56 2.84767 41.6334 3.02501 41.7642 3.15576C41.8949 3.28651 42.0723 3.35997 42.2572 3.35997H43.24V4.30917C42.104 4.48866 41.0206 4.91285 40.0648 5.55237L38.9812 4.19997C38.9235 4.12878 38.8522 4.06983 38.7714 4.02656C38.6906 3.98329 38.602 3.95657 38.5108 3.94797C38.419 3.93844 38.3263 3.94767 38.2382 3.97511C38.1501 4.00255 38.0685 4.04761 37.9984 4.10757L37.1584 4.82157C37.0865 4.87861 37.027 4.94978 36.9837 5.03068C36.9404 5.11158 36.914 5.2005 36.9064 5.29197C36.8969 5.38181 36.9053 5.47264 36.9313 5.55917C36.9573 5.64571 37.0002 5.7262 37.0576 5.79597L38.2 7.21557V7.25757C37.2723 8.44045 36.698 9.86154 36.5433 11.3568C36.3886 12.8522 36.6599 14.3607 37.3259 15.7084C37.9918 17.0562 39.0253 18.1881 40.307 18.9737C41.5887 19.7592 43.0664 20.1663 44.5696 20.148C46.0728 20.1297 47.5401 19.6868 48.8023 18.8703C50.0645 18.0538 51.0702 16.897 51.7031 15.5335C52.3361 14.1699 52.5706 12.6552 52.3796 11.1641C52.1886 9.67302 51.5798 8.26632 50.6236 7.10637H50.6572ZM50.3212 4.87197L50.968 5.40117L50.0776 6.48477C49.8774 6.28911 49.6671 6.10406 49.4476 5.93037L50.3212 4.87197ZM42.4 1.67997H46.6V2.51997H42.4V1.67997ZM44.08 3.35997H44.92V4.19997C44.7772 4.19997 44.6428 4.19997 44.5 4.19997C44.3572 4.19997 44.2228 4.19997 44.08 4.19997V3.35997ZM37.7716 5.40117L38.4268 4.87197L39.3928 6.05637C39.1783 6.23569 38.9737 6.42637 38.7796 6.62757L37.7716 5.40117ZM44.5 19.32C43.0878 19.32 41.7074 18.9012 40.5332 18.1167C39.3591 17.3321 38.4439 16.217 37.9035 14.9123C37.3631 13.6077 37.2217 12.172 37.4972 10.787C37.7727 9.402 38.4527 8.12977 39.4512 7.13122C40.4498 6.13268 41.722 5.45266 43.107 5.17716C44.4921 4.90166 45.9277 5.04306 47.2324 5.58347C48.537 6.12388 49.6521 7.03903 50.4367 8.21319C51.2212 9.38736 51.64 10.7678 51.64 12.18C51.6378 14.0729 50.8848 15.8877 49.5463 17.2263C48.2077 18.5648 46.393 19.3177 44.5 19.32Z" fill="#FF7900"/>
<path d="M50.1702 11.76H44.9202V6.50997C44.9202 6.39857 44.8759 6.29175 44.7971 6.21298C44.7184 6.13422 44.6116 6.08997 44.5002 6.08997C43.2957 6.08997 42.1182 6.44714 41.1167 7.11632C40.1152 7.78549 39.3347 8.73662 38.8737 9.84942C38.4128 10.9622 38.2922 12.1867 38.5272 13.3681C38.7622 14.5494 39.3422 15.6345 40.1939 16.4862C41.0456 17.3379 42.1307 17.918 43.3121 18.1529C44.4934 18.3879 45.7179 18.2673 46.8307 17.8064C47.9435 17.3455 48.8946 16.5649 49.5638 15.5634C50.233 14.5619 50.5902 13.3845 50.5902 12.18C50.5902 12.0686 50.5459 11.9617 50.4671 11.883C50.3884 11.8042 50.2816 11.76 50.1702 11.76ZM44.5002 17.43C43.1441 17.4301 41.8406 16.9054 40.8627 15.966C39.8848 15.0265 39.3083 13.7451 39.254 12.3901C39.1997 11.0352 39.6719 9.71174 40.5715 8.69707C41.4711 7.68239 42.7284 7.05516 44.0802 6.94677V12.18C44.0802 12.2914 44.1244 12.3982 44.2032 12.477C44.2819 12.5557 44.3888 12.6 44.5002 12.6H49.7334C49.6259 13.9147 49.0282 15.141 48.0589 16.0357C47.0895 16.9304 45.8193 17.428 44.5002 17.43Z" fill="#FF7900"/>
<defs>
<clipPath id="clip0_227_75">
<rect width="42" height="37" fill="white" transform="translate(0 5)"/>
</clipPath>
</defs>
</svg>
