<svg width="61" height="50" viewBox="0 0 61 50" fill="none" xmlns="http://www.w3.org/2000/svg">
<g clip-path="url(#clip0_227_72)">
<path d="M58.1898 33.849H52.5898V29.819H53.5238V33.0983H57.9898L58.1898 33.849Z" fill="#FF7900"/>
<path d="M48.1551 31.679H45.7051V33.849H48.1551V31.679Z" fill="#FF7900"/>
<path d="M43.6053 31.679H41.1553V33.849H43.6053V31.679Z" fill="#FF7900"/>
<path d="M39.0555 31.679H36.6055V33.849H39.0555V31.679Z" fill="#FF7900"/>
<path d="M34.1551 31.679H31.7051V33.849H34.1551V31.679Z" fill="#FF7900"/>
<path d="M38.4425 38.1766H32.097L27.3125 34.9216V25.0202C27.3156 24.8419 27.3765 24.6681 27.4879 24.5196C27.5994 24.3711 27.7567 24.254 27.9411 24.1825C28.1255 24.111 28.3293 24.0879 28.5281 24.116C28.727 24.1442 28.9124 24.2224 29.0625 24.3413L34.7185 28.9603L34.4945 29.2021L34.246 29.4222L28.6005 24.797C28.5507 24.7572 28.4891 24.7309 28.423 24.7212C28.3568 24.7115 28.2889 24.7189 28.2273 24.7424C28.1658 24.7659 28.1131 24.8046 28.0757 24.8538C28.0382 24.9031 28.0175 24.9608 28.016 25.0202V34.6147L32.335 37.5566H38.4425V38.1766Z" fill="#FF7900"/>
<path d="M57.2126 38.1766H45.9671L46.3634 37.4062H57.1816C57.6134 37.4057 58.1012 37.3035 58.4543 37.0833C58.8074 36.8631 58.9445 36.4744 59.0906 36.1145C59.2368 35.7546 59.2045 35.5147 59.0906 35.1458C58.9768 34.7768 58.4686 34.4211 58.1361 34.177L51.7725 29.6562H27.6621V28.8766H52.3266L59.0011 33.7901C59.4435 34.116 59.7617 34.5548 59.9125 35.0467C60.0633 35.5385 60.0394 36.0596 59.8439 36.5389C59.6485 37.0183 59.291 37.4327 58.8202 37.7257C58.3494 38.0188 57.788 38.1762 57.2126 38.1766Z" fill="#FF7900"/>
<path d="M38.5297 44.9067C38.0039 44.9079 37.4875 44.7842 37.034 44.5485C36.5806 44.3129 36.2068 43.9738 35.9516 43.5667C35.6964 43.1596 35.5692 42.6993 35.5831 42.2338C35.597 41.7683 35.7515 41.3147 36.0307 40.9201L39.6217 35.8113H48.4172L41.2702 43.7411C40.9417 44.1054 40.5248 44.3994 40.0503 44.6012C39.5758 44.803 39.056 44.9074 38.5297 44.9067ZM39.9997 36.4313L36.6257 41.2487C36.3991 41.5603 36.2777 41.9227 36.2757 42.2934C36.2766 42.8212 36.5135 43.3273 36.9346 43.7009C37.3557 44.0744 37.9267 44.285 38.5227 44.2867C38.9433 44.2874 39.3587 44.2041 39.738 44.0431C40.1173 43.8821 40.4508 43.6475 40.7137 43.3567L46.9647 36.4313H39.9997Z" fill="#FF7900"/>
<path d="M33.9799 43.459H28.3799V44.079H33.9799V43.459Z" fill="#FF7900"/>
<path d="M33.9805 40.359H26.9805V40.979H33.9805V40.359Z" fill="#FF7900"/>
</g>
<path d="M25.1635 39.2504C25.3264 39.1185 25.433 38.9296 25.4618 38.722C25.4905 38.5143 25.4392 38.3036 25.3183 38.1324C25.2531 38.0394 25.1702 37.9602 25.0742 37.8994C24.9783 37.8386 24.8712 37.7975 24.7593 37.7783C24.6474 37.7591 24.5327 37.7623 24.422 37.7876C24.3113 37.813 24.2067 37.86 24.1143 37.926C23.5595 38.3105 22.9854 38.6664 22.3943 38.9924V30.96H23.3059C23.419 30.9721 23.5335 30.9602 23.6417 30.925C23.75 30.8898 23.8495 30.8322 23.934 30.7559C24.0184 30.6796 24.0858 30.5863 24.1317 30.4822C24.1775 30.378 24.2009 30.2654 24.2003 30.1516C24.2073 30.0386 24.1919 29.9253 24.155 29.8183C24.1181 29.7113 24.0605 29.6126 23.9854 29.5279C23.9103 29.4432 23.8192 29.3742 23.7173 29.3248C23.6155 29.2754 23.5049 29.2466 23.3919 29.24H22.3599V22.36H32.6799C32.6799 22.6008 32.6799 22.8416 32.6799 23.0652C32.6705 23.1782 32.6835 23.2919 32.7183 23.3999C32.753 23.5078 32.8087 23.6079 32.8823 23.6942C32.9558 23.7805 33.0457 23.8514 33.1467 23.9029C33.2478 23.9543 33.358 23.9853 33.4711 23.994C33.5846 24.0058 33.6992 23.9945 33.8082 23.9607C33.9171 23.9268 34.0181 23.8713 34.1049 23.7973C34.1918 23.7233 34.2627 23.6325 34.3134 23.5303C34.3641 23.4281 34.3935 23.3167 34.3999 23.2028C34.3999 22.9276 34.3999 22.6352 34.3999 22.36H39.5599C39.5599 22.6524 39.5599 22.962 39.5599 23.2544C39.548 23.3674 39.5587 23.4817 39.5912 23.5906C39.6238 23.6995 39.6776 23.8008 39.7496 23.8888C39.8216 23.9768 39.9103 24.0496 40.0105 24.1031C40.1108 24.1566 40.2207 24.1896 40.3339 24.2004C40.5603 24.2155 40.7841 24.1439 40.9597 24.0002C41.1354 23.8565 41.2498 23.6513 41.2799 23.4264C41.2799 22.79 41.3659 22.1536 41.3659 21.5C41.3692 17.426 40.1155 13.4502 37.7759 10.1149C35.4363 6.77972 32.1248 4.24749 28.293 2.86373C24.4612 1.47997 20.2958 1.31205 16.365 2.3829C12.4343 3.45374 8.92962 5.7112 6.32916 8.84729C3.7287 11.9834 2.15909 15.8454 1.83445 19.9064C1.50982 23.9675 2.44597 28.0298 4.51519 31.5392C6.58441 35.0485 9.68594 37.8341 13.3966 39.5158C17.1074 41.1975 21.2465 41.6934 25.2495 40.936C25.4776 40.936 25.6963 40.8454 25.8576 40.6841C26.0189 40.5228 26.1095 40.3041 26.1095 40.076C26.1095 39.8479 26.0189 39.6292 25.8576 39.4679C25.6963 39.3066 25.4776 39.216 25.2495 39.216L25.1635 39.2504ZM20.6399 39.0096C17.6473 37.3436 15.1309 34.9397 13.3299 32.0264C15.7122 31.366 18.1682 31.0077 20.6399 30.96V39.0096ZM20.6399 29.24C17.8719 29.3244 15.1261 29.7638 12.4699 30.5472C11.1734 28.0043 10.4401 25.2118 10.3199 22.36H20.6399V29.24ZM3.43989 22.36H8.59989C8.72661 25.3467 9.47036 28.2748 10.7843 30.96C9.56556 31.3925 8.37625 31.9039 7.22389 32.4908C4.94554 29.5863 3.62355 26.0469 3.43989 22.36ZM7.30989 10.32C8.46675 10.8973 9.65546 11.4083 10.8703 11.8508C9.502 14.5876 8.72826 17.5829 8.59989 20.64H3.43989C3.61154 16.8784 4.96584 13.2669 7.30989 10.32ZM22.3599 3.99038C25.3524 5.65633 27.8689 8.06031 29.6699 10.9736C27.2869 11.631 24.8314 11.9892 22.3599 12.04V3.99038ZM20.6399 12.04C18.1836 11.955 15.7465 11.5738 13.3815 10.9048C15.1909 8.04331 17.6857 5.67856 20.6399 4.02478V12.04ZM20.6399 13.76V20.64H10.3199C10.449 17.7722 11.2002 14.9669 12.5215 12.4184C15.1577 13.217 17.8869 13.668 20.6399 13.76ZM22.3599 13.76C25.1199 13.7049 27.8608 13.2886 30.5127 12.5216C31.8062 15.042 32.5451 17.8102 32.6799 20.64H22.3599V13.76ZM39.5599 20.64H34.3999C34.2585 17.6493 33.4971 14.7207 32.1639 12.04C33.3953 11.6101 34.6012 11.1105 35.7759 10.5436C38.0486 13.4381 39.3703 16.9647 39.5599 20.64ZM34.6063 9.11598C33.5498 9.62619 32.4643 10.0742 31.3555 10.4576C29.8358 7.86715 27.7911 5.62324 25.3527 3.86998C28.899 4.63677 32.1271 6.46684 34.6063 9.11598ZM17.6471 3.95598C15.2614 5.65684 13.2432 7.82132 11.7131 10.32C10.611 9.93362 9.53141 9.48572 8.47949 8.97838C10.9598 6.40233 14.1515 4.62385 17.6471 3.86998V3.95598ZM8.41069 33.9012C9.45798 33.3836 10.5382 32.9354 11.6443 32.5596C13.1743 35.1376 15.2175 37.3739 17.6471 39.13C14.1118 38.3575 10.8923 36.535 8.41069 33.9012Z" fill="#FF7900"/>
<defs>
<clipPath id="clip0_227_72">
<rect width="35" height="31" fill="white" transform="translate(26 19)"/>
</clipPath>
</defs>
</svg>
